<svg version="1.1" xmlns="http://www.w3.org/2000/svg" xmlns:xlink="http://www.w3.org/1999/xlink" width="568.7890625" height="452"><defs/><g><g transform="translate(-62,-14) scale(1,1)"><rect fill="#C0C0C0" stroke="none" x="295" y="39" width="140.14892578125" height="102" opacity="0.2"/></g><g transform="translate(-62,-14) scale(1,1)"><rect fill="#ffffff" stroke="none" x="288" y="32" width="140.14892578125" height="102"/></g><g transform="translate(-62,-14) scale(1,1)"><path fill="none" stroke="#000000" d="M 288 32 L 428.14892578125 32 L 428.14892578125 134 L 288 134 L 288 32 Z Z" stroke-miterlimit="10"/></g><g transform="translate(-62,-14) scale(1,1)"><path fill="none" stroke="#000000" d="M 288 57 L 428.14892578125 57" stroke-miterlimit="10"/></g><g transform="translate(-62,-14) scale(1,1)"><path fill="none" stroke="#000000" d="M 288 125 L 428.14892578125 125" stroke-miterlimit="10"/></g><g transform="translate(-62,-14) scale(1,1)"><g><path fill="none" stroke="none"/><text fill="#000000" stroke="none" font-family="Arial" font-size="13px" font-style="normal" font-weight="bold" text-decoration="none" x="343.620849609375" y="50">User</text></g></g><g transform="translate(-62,-14) scale(1,1)"><g><path fill="none" stroke="none"/><text fill="#000000" stroke="none" font-family="Arial" font-size="13px" font-style="normal" font-weight="normal" text-decoration="none" x="293" y="73">+id: int {id}</text></g></g><g transform="translate(-62,-14) scale(1,1)"><g><path fill="none" stroke="none"/><text fill="#000000" stroke="none" font-family="Arial" font-size="13px" font-style="normal" font-weight="normal" text-decoration="none" x="293" y="88">+username: string</text></g></g><g transform="translate(-62,-14) scale(1,1)"><g><path fill="none" stroke="none"/><text fill="#000000" stroke="none" font-family="Arial" font-size="13px" font-style="normal" font-weight="normal" text-decoration="none" x="293" y="103">+email_address: string</text></g></g><g transform="translate(-62,-14) scale(1,1)"><g><path fill="none" stroke="none"/><text fill="#000000" stroke="none" font-family="Arial" font-size="13px" font-style="normal" font-weight="normal" text-decoration="none" x="293" y="118">+password: string</text></g></g><g transform="translate(-62,-14) scale(1,1)"><rect fill="#C0C0C0" stroke="none" x="535" y="55" width="92.7890625" height="72" opacity="0.2"/></g><g transform="translate(-62,-14) scale(1,1)"><rect fill="#ffffff" stroke="none" x="528" y="48" width="92.7890625" height="72"/></g><g transform="translate(-62,-14) scale(1,1)"><path fill="none" stroke="#000000" d="M 528 48 L 620.7890625 48 L 620.7890625 120 L 528 120 L 528 48 Z Z" stroke-miterlimit="10"/></g><g transform="translate(-62,-14) scale(1,1)"><path fill="none" stroke="#000000" d="M 528 73 L 620.7890625 73" stroke-miterlimit="10"/></g><g transform="translate(-62,-14) scale(1,1)"><path fill="none" stroke="#000000" d="M 528 111 L 620.7890625 111" stroke-miterlimit="10"/></g><g transform="translate(-62,-14) scale(1,1)"><g><path fill="none" stroke="none"/><text fill="#000000" stroke="none" font-family="Arial" font-size="13px" font-style="normal" font-weight="bold" text-decoration="none" x="532.5" y="66">BankAccount</text></g></g><g transform="translate(-62,-14) scale(1,1)"><g><path fill="none" stroke="none"/><text fill="#000000" stroke="none" font-family="Arial" font-size="13px" font-style="normal" font-weight="normal" text-decoration="none" x="533" y="89">+id: int {id}</text></g></g><g transform="translate(-62,-14) scale(1,1)"><g><path fill="none" stroke="none"/><text fill="#000000" stroke="none" font-family="Arial" font-size="13px" font-style="normal" font-weight="normal" text-decoration="none" x="533" y="104">+name: string</text></g></g><g transform="translate(-62,-14) scale(1,1)"><rect fill="#C0C0C0" stroke="none" x="319" y="231" width="96.78173828125" height="87" opacity="0.2"/></g><g transform="translate(-62,-14) scale(1,1)"><rect fill="#ffffff" stroke="none" x="312" y="224" width="96.78173828125" height="87"/></g><g transform="translate(-62,-14) scale(1,1)"><path fill="none" stroke="#000000" d="M 312 224 L 408.78173828125 224 L 408.78173828125 311 L 312 311 L 312 224 Z Z" stroke-miterlimit="10"/></g><g transform="translate(-62,-14) scale(1,1)"><path fill="none" stroke="#000000" d="M 312 249 L 408.78173828125 249" stroke-miterlimit="10"/></g><g transform="translate(-62,-14) scale(1,1)"><path fill="none" stroke="#000000" d="M 312 302 L 408.78173828125 302" stroke-miterlimit="10"/></g><g transform="translate(-62,-14) scale(1,1)"><g><path fill="none" stroke="none"/><text fill="#000000" stroke="none" font-family="Arial" font-size="13px" font-style="normal" font-weight="bold" text-decoration="none" x="331.851806640625" y="242">Currency</text></g></g><g transform="translate(-62,-14) scale(1,1)"><g><path fill="none" stroke="none"/><text fill="#000000" stroke="none" font-family="Arial" font-size="13px" font-style="normal" font-weight="normal" text-decoration="none" x="317" y="265">+id: int {id}</text></g></g><g transform="translate(-62,-14) scale(1,1)"><g><path fill="none" stroke="none"/><text fill="#000000" stroke="none" font-family="Arial" font-size="13px" font-style="normal" font-weight="normal" text-decoration="none" x="317" y="280">+name: string</text></g></g><g transform="translate(-62,-14) scale(1,1)"><g><path fill="none" stroke="none"/><text fill="#000000" stroke="none" font-family="Arial" font-size="13px" font-style="normal" font-weight="normal" text-decoration="none" x="317" y="295">+symbol: string</text></g></g><g transform="translate(-62,-14) scale(1,1)"><rect fill="#C0C0C0" stroke="none" x="543" y="239" width="81.96630859375" height="72" opacity="0.2"/></g><g transform="translate(-62,-14) scale(1,1)"><rect fill="#ffffff" stroke="none" x="536" y="232" width="81.96630859375" height="72"/></g><g transform="translate(-62,-14) scale(1,1)"><path fill="none" stroke="#000000" d="M 536 232 L 617.96630859375 232 L 617.96630859375 304 L 536 304 L 536 232 Z Z" stroke-miterlimit="10"/></g><g transform="translate(-62,-14) scale(1,1)"><path fill="none" stroke="#000000" d="M 536 257 L 617.96630859375 257" stroke-miterlimit="10"/></g><g transform="translate(-62,-14) scale(1,1)"><path fill="none" stroke="#000000" d="M 536 295 L 617.96630859375 295" stroke-miterlimit="10"/></g><g transform="translate(-62,-14) scale(1,1)"><g><path fill="none" stroke="none"/><text fill="#000000" stroke="none" font-family="Arial" font-size="13px" font-style="normal" font-weight="bold" text-decoration="none" x="540.5" y="250">Transaction</text></g></g><g transform="translate(-62,-14) scale(1,1)"><g><path fill="none" stroke="none"/><text fill="#000000" stroke="none" font-family="Arial" font-size="13px" font-style="normal" font-weight="normal" text-decoration="none" x="541" y="273">+id: int {id}</text></g></g><g transform="translate(-62,-14) scale(1,1)"><g><path fill="none" stroke="none"/><text fill="#000000" stroke="none" font-family="Arial" font-size="13px" font-style="normal" font-weight="normal" text-decoration="none" x="541" y="288">+amount: int</text></g></g><g transform="translate(-62,-14) scale(1,1)"><path fill="none" stroke="#000000" d="M 429 83 L 527 84" stroke-miterlimit="10"/></g><g transform="translate(-62,-14) scale(1,1)"><path fill="#000000" stroke="none" d="M 439.20509784013 78.89439674671625 L 429 83 L 439.1191937866866 87.31299398416962 L 450.99885473333427 83.22447810952382"/></g><g transform="translate(-62,-14) scale(1,1)"><path fill="none" stroke="#000000" d="M 439.20509784013 78.89439674671625 L 429 83 L 439.1191937866866 87.31299398416962 L 450.99885473333427 83.22447810952382 L 439.20509784013 78.89439674671625" stroke-miterlimit="10"/></g><g transform="translate(-62,-14) scale(1,1)"><g><path fill="none" stroke="none"/><text fill="#000000" stroke="none" font-family="Arial" font-size="13px" font-style="normal" font-weight="normal" text-decoration="none" x="460.5" y="73">+have</text></g></g><g transform="translate(-62,-14) scale(1,1)"><g><path fill="none" stroke="none"/><text fill="#000000" stroke="none" font-family="Arial" font-size="13px" font-style="normal" font-weight="normal" text-decoration="none" x="446.641357421875" y="100">1</text></g></g><g transform="translate(-62,-14) scale(1,1)"><g><path fill="none" stroke="none"/><text fill="#000000" stroke="none" font-family="Arial" font-size="13px" font-style="normal" font-weight="normal" text-decoration="none" x="495.5" y="101">1..*</text></g></g><g transform="translate(-62,-14) scale(1,1)"><path fill="none" stroke="#000000" d="M 574 121 L 576 231" stroke-miterlimit="10"/></g><g transform="translate(-62,-14) scale(1,1)"><path fill="#000000" stroke="none" d="M 578.3935675130193 131.08447145409917 L 574 121 L 569.9759232321812 131.23751953193258 L 574.3999339006854 142.9963645376931"/></g><g transform="translate(-62,-14) scale(1,1)"><path fill="none" stroke="#000000" d="M 578.3935675130193 131.08447145409917 L 574 121 L 569.9759232321812 131.23751953193258 L 574.3999339006854 142.9963645376931 L 578.3935675130193 131.08447145409917" stroke-miterlimit="10"/></g><g transform="translate(-62,-14) scale(1,1)"><g><path fill="none" stroke="none"/><text fill="#000000" stroke="none" font-family="Arial" font-size="13px" font-style="normal" font-weight="normal" text-decoration="none" x="527.5" y="178">+affect</text></g></g><g transform="translate(-62,-14) scale(1,1)"><g><path fill="none" stroke="none"/><text fill="#000000" stroke="none" font-family="Arial" font-size="13px" font-style="normal" font-weight="normal" text-decoration="none" x="549.641357421875" y="147">1</text></g></g><g transform="translate(-62,-14) scale(1,1)"><g><path fill="none" stroke="none"/><text fill="#000000" stroke="none" font-family="Arial" font-size="13px" font-style="normal" font-weight="normal" text-decoration="none" x="545.5" y="218">0..*</text></g></g><g transform="translate(-62,-14) scale(1,1)"><path fill="none" stroke="#000000" d="M 410 267 L 535 268" stroke-miterlimit="10"/></g><g transform="translate(-62,-14) scale(1,1)"><g><path fill="none" stroke="none"/><text fill="#000000" stroke="none" font-family="Arial" font-size="13px" font-style="normal" font-weight="normal" text-decoration="none" x="450.5" y="283">+using</text></g></g><g transform="translate(-62,-14) scale(1,1)"><g><path fill="none" stroke="none"/><text fill="#000000" stroke="none" font-family="Arial" font-size="13px" font-style="normal" font-weight="normal" text-decoration="none" x="427.641357421875" y="284">1</text></g></g><g transform="translate(-62,-14) scale(1,1)"><g><path fill="none" stroke="none"/><text fill="#000000" stroke="none" font-family="Arial" font-size="13px" font-style="normal" font-weight="normal" text-decoration="none" x="503.5" y="285">0..*</text></g></g><g transform="translate(-62,-14) scale(1,1)"><path fill="none" stroke="#000000" d="M 410 224 L 531 121" stroke-miterlimit="10"/></g><g transform="translate(-62,-14) scale(1,1)"><g><path fill="none" stroke="none"/><text fill="#000000" stroke="none" font-family="Arial" font-size="13px" font-style="normal" font-weight="normal" text-decoration="none" x="469.5" y="192">+use</text></g></g><g transform="translate(-62,-14) scale(1,1)"><g><path fill="none" stroke="none"/><text fill="#000000" stroke="none" font-family="Arial" font-size="13px" font-style="normal" font-weight="normal" text-decoration="none" x="430.641357421875" y="224">1</text></g></g><g transform="translate(-62,-14) scale(1,1)"><g><path fill="none" stroke="none"/><text fill="#000000" stroke="none" font-family="Arial" font-size="13px" font-style="normal" font-weight="normal" text-decoration="none" x="512.5" y="149">0..*</text></g></g><g transform="translate(-62,-14) scale(1,1)"><rect fill="#C0C0C0" stroke="none" x="319" y="391" width="88.12353515625" height="72" opacity="0.2"/></g><g transform="translate(-62,-14) scale(1,1)"><rect fill="#ffffff" stroke="none" x="312" y="384" width="88.12353515625" height="72"/></g><g transform="translate(-62,-14) scale(1,1)"><path fill="none" stroke="#000000" d="M 312 384 L 400.12353515625 384 L 400.12353515625 456 L 312 456 L 312 384 Z Z" stroke-miterlimit="10"/></g><g transform="translate(-62,-14) scale(1,1)"><path fill="none" stroke="#000000" d="M 312 409 L 400.12353515625 409" stroke-miterlimit="10"/></g><g transform="translate(-62,-14) scale(1,1)"><path fill="none" stroke="#000000" d="M 312 447 L 400.12353515625 447" stroke-miterlimit="10"/></g><g transform="translate(-62,-14) scale(1,1)"><g><path fill="none" stroke="none"/><text fill="#000000" stroke="none" font-family="Arial" font-size="13px" font-style="normal" font-weight="bold" text-decoration="none" x="327.8876953125" y="402">Category</text></g></g><g transform="translate(-62,-14) scale(1,1)"><g><path fill="none" stroke="none"/><text fill="#000000" stroke="none" font-family="Arial" font-size="13px" font-style="normal" font-weight="normal" text-decoration="none" x="317" y="425">+id: int {id}</text></g></g><g transform="translate(-62,-14) scale(1,1)"><g><path fill="none" stroke="none"/><text fill="#000000" stroke="none" font-family="Arial" font-size="13px" font-style="normal" font-weight="normal" text-decoration="none" x="317" y="440">+name: string</text></g></g><g transform="translate(-62,-14) scale(1,1)"><path fill="none" stroke="#000000" d="M 535 296 L 401 389" stroke-miterlimit="10"/></g><g transform="translate(-62,-14) scale(1,1)"><path fill="#FFFFFF" stroke="none" d="M 406.94881336081977 379.747345267539 L 401 389 L 411.74906117274975 386.66383136214785 L 419.0736491565966 376.4563479734068"/></g><g transform="translate(-62,-14) scale(1,1)"><path fill="none" stroke="#000000" d="M 406.94881336081977 379.747345267539 L 401 389 L 411.74906117274975 386.66383136214785 L 419.0736491565966 376.4563479734068 L 406.94881336081977 379.747345267539" stroke-miterlimit="10"/></g><g transform="translate(-62,-14) scale(1,1)"><g><path fill="none" stroke="none"/><text fill="#000000" stroke="none" font-family="Arial" font-size="13px" font-style="normal" font-weight="normal" text-decoration="none" x="383.5" y="338">+groupped by</text></g></g><g transform="translate(-62,-14) scale(1,1)"><g><path fill="none" stroke="none"/><text fill="#000000" stroke="none" font-family="Arial" font-size="13px" font-style="normal" font-weight="normal" text-decoration="none" x="500.5" y="303">0..*</text></g></g><g transform="translate(-62,-14) scale(1,1)"><g><path fill="none" stroke="none"/><text fill="#000000" stroke="none" font-family="Arial" font-size="13px" font-style="normal" font-weight="normal" text-decoration="none" x="407.641357421875" y="371">1</text></g></g><g transform="translate(-62,-14) scale(1,1)"><rect fill="#C0C0C0" stroke="none" x="135" y="231" width="98.96533203125" height="87" opacity="0.2"/></g><g transform="translate(-62,-14) scale(1,1)"><rect fill="#ffffff" stroke="none" x="128" y="224" width="98.96533203125" height="87"/></g><g transform="translate(-62,-14) scale(1,1)"><path fill="none" stroke="#000000" d="M 128 224 L 226.96533203125 224 L 226.96533203125 311 L 128 311 L 128 224 Z Z" stroke-miterlimit="10"/></g><g transform="translate(-62,-14) scale(1,1)"><path fill="none" stroke="#000000" d="M 128 249 L 226.96533203125 249" stroke-miterlimit="10"/></g><g transform="translate(-62,-14) scale(1,1)"><path fill="none" stroke="#000000" d="M 128 302 L 226.96533203125 302" stroke-miterlimit="10"/></g><g transform="translate(-62,-14) scale(1,1)"><g><path fill="none" stroke="none"/><text fill="#000000" stroke="none" font-family="Arial" font-size="13px" font-style="normal" font-weight="bold" text-decoration="none" x="155.09765625" y="242">Budget</text></g></g><g transform="translate(-62,-14) scale(1,1)"><g><path fill="none" stroke="none"/><text fill="#000000" stroke="none" font-family="Arial" font-size="13px" font-style="normal" font-weight="normal" text-decoration="none" x="133" y="265">+id: int {id}</text></g></g><g transform="translate(-62,-14) scale(1,1)"><g><path fill="none" stroke="none"/><text fill="#000000" stroke="none" font-family="Arial" font-size="13px" font-style="normal" font-weight="normal" text-decoration="none" x="133" y="280">+name: string</text></g></g><g transform="translate(-62,-14) scale(1,1)"><g><path fill="none" stroke="none"/><text fill="#000000" stroke="none" font-family="Arial" font-size="13px" font-style="normal" font-weight="normal" text-decoration="none" x="133" y="295">+amount: int</text></g></g><g transform="translate(-62,-14) scale(1,1)"><path fill="none" stroke="#000000" d="M 220 223 L 307 135" stroke-miterlimit="10"/></g><g transform="translate(-62,-14) scale(1,1)"><path fill="#000000" stroke="none" d="M 302.84862244878127 145.18656293492742 L 307 135 L 296.8615450539969 139.26752051053833 L 291.5327967615223 150.64498718374756"/></g><g transform="translate(-62,-14) scale(1,1)"><path fill="none" stroke="#000000" d="M 302.84862244878127 145.18656293492742 L 307 135 L 296.8615450539969 139.26752051053833 L 291.5327967615223 150.64498718374756 L 302.84862244878127 145.18656293492742" stroke-miterlimit="10"/></g><g transform="translate(-62,-14) scale(1,1)"><g><path fill="none" stroke="none"/><text fill="#000000" stroke="none" font-family="Arial" font-size="13px" font-style="normal" font-weight="normal" text-decoration="none" x="234.5" y="173">+have</text></g></g><g transform="translate(-62,-14) scale(1,1)"><g><path fill="none" stroke="none"/><text fill="#000000" stroke="none" font-family="Arial" font-size="13px" font-style="normal" font-weight="normal" text-decoration="none" x="234.5" y="221">0..*</text></g></g><g transform="translate(-62,-14) scale(1,1)"><g><path fill="none" stroke="none"/><text fill="#000000" stroke="none" font-family="Arial" font-size="13px" font-style="normal" font-weight="normal" text-decoration="none" x="296.641357421875" y="164">1</text></g></g><g transform="translate(-62,-14) scale(1,1)"><path fill="none" stroke="#000000" d="M 228 311 L 313 383" stroke-miterlimit="10"/></g><g transform="translate(-62,-14) scale(1,1)"><path fill="#FFFFFF" stroke="none" d="M 302.52461599184323 379.64346460145987 L 313 383 L 307.9662138738996 373.2193559906988 L 296.21299521367234 368.78041947511065"/></g><g transform="translate(-62,-14) scale(1,1)"><path fill="none" stroke="#000000" d="M 302.52461599184323 379.64346460145987 L 313 383 L 307.9662138738996 373.2193559906988 L 296.21299521367234 368.78041947511065 L 302.52461599184323 379.64346460145987" stroke-miterlimit="10"/></g><g transform="translate(-62,-14) scale(1,1)"><g><path fill="none" stroke="none"/><text fill="#000000" stroke="none" font-family="Arial" font-size="13px" font-style="normal" font-weight="normal" text-decoration="none" x="263.5" y="340">+relative to</text></g></g><g transform="translate(-62,-14) scale(1,1)"><g><path fill="none" stroke="none"/><text fill="#000000" stroke="none" font-family="Arial" font-size="13px" font-style="normal" font-weight="normal" text-decoration="none" x="226.5" y="339">0..*</text></g></g><g transform="translate(-62,-14) scale(1,1)"><g><path fill="none" stroke="none"/><text fill="#000000" stroke="none" font-family="Arial" font-size="13px" font-style="normal" font-weight="normal" text-decoration="none" x="284.641357421875" y="383">1</text></g></g><g transform="translate(-62,-14) scale(1,1)"><rect fill="#C0C0C0" stroke="none" x="79" y="31" width="127.87255859375" height="117" opacity="0.2"/></g><g transform="translate(-62,-14) scale(1,1)"><rect fill="#ffffff" stroke="none" x="72" y="24" width="127.87255859375" height="117"/></g><g transform="translate(-62,-14) scale(1,1)"><path fill="none" stroke="#000000" d="M 72 24 L 199.87255859375 24 L 199.87255859375 141 L 72 141 L 72 24 Z Z" stroke-miterlimit="10"/></g><g transform="translate(-62,-14) scale(1,1)"><path fill="none" stroke="#000000" d="M 72 49 L 199.87255859375 49" stroke-miterlimit="10"/></g><g transform="translate(-62,-14) scale(1,1)"><path fill="none" stroke="#000000" d="M 72 132 L 199.87255859375 132" stroke-miterlimit="10"/></g><g transform="translate(-62,-14) scale(1,1)"><g><path fill="none" stroke="none"/><text fill="#000000" stroke="none" font-family="Arial" font-size="13px" font-style="normal" font-weight="bold" text-decoration="none" x="105.95947265625" y="42">Milestone</text></g></g><g transform="translate(-62,-14) scale(1,1)"><g><path fill="none" stroke="none"/><text fill="#000000" stroke="none" font-family="Arial" font-size="13px" font-style="normal" font-weight="normal" text-decoration="none" x="77" y="65">+id: int {id}</text></g></g><g transform="translate(-62,-14) scale(1,1)"><g><path fill="none" stroke="none"/><text fill="#000000" stroke="none" font-family="Arial" font-size="13px" font-style="normal" font-weight="normal" text-decoration="none" x="77" y="80">+description: string</text></g></g><g transform="translate(-62,-14) scale(1,1)"><g><path fill="none" stroke="none"/><text fill="#000000" stroke="none" font-family="Arial" font-size="13px" font-style="normal" font-weight="normal" text-decoration="none" x="77" y="95">+due_date: date</text></g></g><g transform="translate(-62,-14) scale(1,1)"><g><path fill="none" stroke="none"/><text fill="#000000" stroke="none" font-family="Arial" font-size="13px" font-style="normal" font-weight="normal" text-decoration="none" x="77" y="110">+amount: int</text></g></g><g transform="translate(-62,-14) scale(1,1)"><g><path fill="none" stroke="none"/><text fill="#000000" stroke="none" font-family="Arial" font-size="13px" font-style="normal" font-weight="normal" text-decoration="none" x="77" y="125">+monthly_saving: int</text></g></g><g transform="translate(-62,-14) scale(1,1)"><path fill="none" stroke="#000000" d="M 287 83 L 201 82" stroke-miterlimit="10"/></g><g transform="translate(-62,-14) scale(1,1)"><path fill="#000000" stroke="none" d="M 276.7890675391646 87.09107055429963 L 287 83 L 276.8869566834476 78.6726041459633 L 265.0014871396238 82.74420333883285"/></g><g transform="translate(-62,-14) scale(1,1)"><path fill="none" stroke="#000000" d="M 276.7890675391646 87.09107055429963 L 287 83 L 276.8869566834476 78.6726041459633 L 265.0014871396238 82.74420333883285 L 276.7890675391646 87.09107055429963" stroke-miterlimit="10"/></g><g transform="translate(-62,-14) scale(1,1)"><g><path fill="none" stroke="none"/><text fill="#000000" stroke="none" font-family="Arial" font-size="13px" font-style="normal" font-weight="normal" text-decoration="none" x="225.5" y="102">+have</text></g></g><g transform="translate(-62,-14) scale(1,1)"><g><path fill="none" stroke="none"/><text fill="#000000" stroke="none" font-family="Arial" font-size="13px" font-style="normal" font-weight="normal" text-decoration="none" x="261.641357421875" y="75">1</text></g></g><g transform="translate(-62,-14) scale(1,1)"><g><path fill="none" stroke="none"/><text fill="#000000" stroke="none" font-family="Arial" font-size="13px" font-style="normal" font-weight="normal" text-decoration="none" x="212.5" y="74">0..*</text></g></g></g></svg>