<svg version="1.1" xmlns="http://www.w3.org/2000/svg" xmlns:xlink="http://www.w3.org/1999/xlink" width="861" height="707"><defs/><g><g transform="translate(-14,2) scale(1,1)"><rect fill="#C0C0C0" stroke="none" x="111" y="15" width="760" height="512" opacity="0.2"/></g><g transform="translate(-14,2) scale(1,1)"><rect fill="#ffffff" stroke="none" x="104" y="8" width="760" height="512"/></g><g transform="translate(-14,2) scale(1,1)"><path fill="none" stroke="#000000" d="M 104 8 L 864 8 L 864 520 L 104 520 L 104 8 Z Z" stroke-miterlimit="10"/></g><g transform="translate(-14,2) scale(1,1)"><g><path fill="none" stroke="none"/><text fill="#000000" stroke="none" font-family="Arial" font-size="13px" font-style="normal" font-weight="bold" text-decoration="none" x="417.908203125" y="26">Costing management</text></g></g><g transform="translate(-14,2) scale(1,1)"><path fill="#ffffff" stroke="none" d="M 40.40935031960227 249.68 C 40.40935031960227 244.886167936 44.295192644547726 241 49.088623046875 241 C 53.882053449202274 241 57.76789577414773 244.886167936 57.76789577414773 249.68 C 57.76789577414773 254.47383206400002 53.882053449202274 258.36 49.088623046875 258.36 C 44.295192644547726 258.36 40.40935031960227 254.47383206400002 40.40935031960227 249.68 Z"/></g><g transform="translate(-14,2) scale(1,1)"><path fill="none" stroke="#000000" d="M 40.40935031960227 249.68 C 40.40935031960227 244.886167936 44.295192644547726 241 49.088623046875 241 C 53.882053449202274 241 57.76789577414773 244.886167936 57.76789577414773 249.68 C 57.76789577414773 254.47383206400002 53.882053449202274 258.36 49.088623046875 258.36 C 44.295192644547726 258.36 40.40935031960227 254.47383206400002 40.40935031960227 249.68 Z" stroke-miterlimit="10"/></g><g transform="translate(-14,2) scale(1,1)"><path fill="none" stroke="#000000" d="M 49.088623046875 258.36 L 49.088623046875 275.64" stroke-miterlimit="10"/></g><g transform="translate(-14,2) scale(1,1)"><path fill="none" stroke="#000000" d="M 39.89880486505682 264.84 L 58.27844122869318 264.84" stroke-miterlimit="10"/></g><g transform="translate(-14,2) scale(1,1)"><path fill="none" stroke="#000000" d="M 49.088623046875 275.64 L 36.324986683238635 293" stroke-miterlimit="10"/></g><g transform="translate(-14,2) scale(1,1)"><path fill="none" stroke="#000000" d="M 49.088623046875 275.64 L 61.852259410511365 293" stroke-miterlimit="10"/></g><g transform="translate(-14,2) scale(1,1)"><g><path fill="none" stroke="none"/><text fill="#000000" stroke="none" font-family="Arial" font-size="13px" font-style="normal" font-weight="bold" text-decoration="none" x="34.635009765625" y="312">User</text></g></g><g transform="translate(-14,2) scale(1,1)"><path fill="#C0C0C0" stroke="none" d="M 199 344 C 199 334.6111584 221.6096176 327 249.5 327 C 277.3903824 327 300 334.6111584 300 344 C 300 353.3888416 277.3903824 361 249.5 361 C 221.6096176 361 199 353.3888416 199 344 Z" opacity="0.2"/></g><g transform="translate(-14,2) scale(1,1)"><path fill="#ffffff" stroke="none" d="M 192 337 C 192 327.6111584 214.6096176 320 242.5 320 C 270.3903824 320 293 327.6111584 293 337 C 293 346.3888416 270.3903824 354 242.5 354 C 214.6096176 354 192 346.3888416 192 337 Z"/></g><g transform="translate(-14,2) scale(1,1)"><path fill="none" stroke="#000000" d="M 192 337 C 192 327.6111584 214.6096176 320 242.5 320 C 270.3903824 320 293 327.6111584 293 337 C 293 346.3888416 270.3903824 354 242.5 354 C 214.6096176 354 192 346.3888416 192 337 Z" stroke-miterlimit="10"/></g><g transform="translate(-14,2) scale(1,1)"><g><path fill="none" stroke="none"/><text fill="#000000" stroke="none" font-family="Arial" font-size="13px" font-style="normal" font-weight="bold" text-decoration="none" x="220.83544921875" y="342.5">Sign in</text></g></g><g transform="translate(-14,2) scale(1,1)"><path fill="#C0C0C0" stroke="none" d="M 127 400 C 127 390.6111584 149.6096176 383 177.5 383 C 205.3903824 383 228 390.6111584 228 400 C 228 409.3888416 205.3903824 417 177.5 417 C 149.6096176 417 127 409.3888416 127 400 Z" opacity="0.2"/></g><g transform="translate(-14,2) scale(1,1)"><path fill="#ffffff" stroke="none" d="M 120 393 C 120 383.6111584 142.6096176 376 170.5 376 C 198.3903824 376 221 383.6111584 221 393 C 221 402.3888416 198.3903824 410 170.5 410 C 142.6096176 410 120 402.3888416 120 393 Z"/></g><g transform="translate(-14,2) scale(1,1)"><path fill="none" stroke="#000000" d="M 120 393 C 120 383.6111584 142.6096176 376 170.5 376 C 198.3903824 376 221 383.6111584 221 393 C 221 402.3888416 198.3903824 410 170.5 410 C 142.6096176 410 120 402.3888416 120 393 Z" stroke-miterlimit="10"/></g><g transform="translate(-14,2) scale(1,1)"><g><path fill="none" stroke="none"/><text fill="#000000" stroke="none" font-family="Arial" font-size="13px" font-style="normal" font-weight="bold" text-decoration="none" x="146.6708984375" y="398.5">Sign up</text></g></g><g transform="translate(-14,2) scale(1,1)"><path fill="#C0C0C0" stroke="none" d="M 127 472 C 127 462.6111584 166.62279519999998 455 215.5 455 C 264.3772048 455 304 462.6111584 304 472 C 304 481.3888416 264.3772048 489 215.5 489 C 166.62279519999998 489 127 481.3888416 127 472 Z" opacity="0.2"/></g><g transform="translate(-14,2) scale(1,1)"><path fill="#ffffff" stroke="none" d="M 120 465 C 120 455.6111584 159.62279519999998 448 208.5 448 C 257.3772048 448 297 455.6111584 297 465 C 297 474.3888416 257.3772048 482 208.5 482 C 159.62279519999998 482 120 474.3888416 120 465 Z"/></g><g transform="translate(-14,2) scale(1,1)"><path fill="none" stroke="#000000" d="M 120 465 C 120 455.6111584 159.62279519999998 448 208.5 448 C 257.3772048 448 297 455.6111584 297 465 C 297 474.3888416 257.3772048 482 208.5 482 C 159.62279519999998 482 120 474.3888416 120 465 Z" stroke-miterlimit="10"/></g><g transform="translate(-14,2) scale(1,1)"><g><path fill="none" stroke="none"/><text fill="#000000" stroke="none" font-family="Arial" font-size="13px" font-style="normal" font-weight="bold" text-decoration="none" x="150.333251953125" y="470.5">Recover Password</text></g></g><g transform="translate(-14,2) scale(1,1)"><path fill="none" stroke="#000000" d="M 75 304 L 151 375" stroke-miterlimit="10"/></g><g transform="translate(-14,2) scale(1,1)"><path fill="none" stroke="#000000" d="M 75 287 L 191 322" stroke-miterlimit="10"/></g><g transform="translate(-14,2) scale(1,1)"><path fill="#ffffff" stroke="none" d="M 280.72478000710225 625.6800000000001 C 280.72478000710225 620.8861679360001 284.61062233204774 617 289.404052734375 617 C 294.19748313670226 617 298.08332546164775 620.8861679360001 298.08332546164775 625.6800000000001 C 298.08332546164775 630.473832064 294.19748313670226 634.36 289.404052734375 634.36 C 284.61062233204774 634.36 280.72478000710225 630.473832064 280.72478000710225 625.6800000000001 Z"/></g><g transform="translate(-14,2) scale(1,1)"><path fill="none" stroke="#000000" d="M 280.72478000710225 625.6800000000001 C 280.72478000710225 620.8861679360001 284.61062233204774 617 289.404052734375 617 C 294.19748313670226 617 298.08332546164775 620.8861679360001 298.08332546164775 625.6800000000001 C 298.08332546164775 630.473832064 294.19748313670226 634.36 289.404052734375 634.36 C 284.61062233204774 634.36 280.72478000710225 630.473832064 280.72478000710225 625.6800000000001 Z" stroke-miterlimit="10"/></g><g transform="translate(-14,2) scale(1,1)"><path fill="none" stroke="#000000" d="M 289.404052734375 634.36 L 289.404052734375 651.64" stroke-miterlimit="10"/></g><g transform="translate(-14,2) scale(1,1)"><path fill="none" stroke="#000000" d="M 280.21423455255683 640.84 L 298.59387091619317 640.84" stroke-miterlimit="10"/></g><g transform="translate(-14,2) scale(1,1)"><path fill="none" stroke="#000000" d="M 289.404052734375 651.64 L 276.64041637073865 669" stroke-miterlimit="10"/></g><g transform="translate(-14,2) scale(1,1)"><path fill="none" stroke="#000000" d="M 289.404052734375 651.64 L 302.16768909801135 669" stroke-miterlimit="10"/></g><g transform="translate(-14,2) scale(1,1)"><g><path fill="none" stroke="none"/><text fill="#000000" stroke="none" font-family="Arial" font-size="13px" font-style="normal" font-weight="bold" text-decoration="none" x="260.5" y="688">Database</text></g></g><g transform="translate(-14,2) scale(1,1)"><path fill="#C0C0C0" stroke="none" d="M 159 88 C 159 78.6111584 204.6669504 71 261 71 C 317.3330496 71 363 78.6111584 363 88 C 363 97.3888416 317.3330496 105 261 105 C 204.6669504 105 159 97.3888416 159 88 Z" opacity="0.2"/></g><g transform="translate(-14,2) scale(1,1)"><path fill="#ffffff" stroke="none" d="M 152 81 C 152 71.6111584 197.6669504 64 254 64 C 310.3330496 64 356 71.6111584 356 81 C 356 90.3888416 310.3330496 98 254 98 C 197.6669504 98 152 90.3888416 152 81 Z"/></g><g transform="translate(-14,2) scale(1,1)"><path fill="none" stroke="#000000" d="M 152 81 C 152 71.6111584 197.6669504 64 254 64 C 310.3330496 64 356 71.6111584 356 81 C 356 90.3888416 310.3330496 98 254 98 C 197.6669504 98 152 90.3888416 152 81 Z" stroke-miterlimit="10"/></g><g transform="translate(-14,2) scale(1,1)"><g><path fill="none" stroke="none"/><text fill="#000000" stroke="none" font-family="Arial" font-size="13px" font-style="normal" font-weight="bold" text-decoration="none" x="186.4482421875" y="86.5">Create bank accounts</text></g></g><g transform="translate(-14,2) scale(1,1)"><path fill="#C0C0C0" stroke="none" d="M 159 160 C 159 150.6111584 203.3238048 143 258 143 C 312.6761952 143 357 150.6111584 357 160 C 357 169.3888416 312.6761952 177 258 177 C 203.3238048 177 159 169.3888416 159 160 Z" opacity="0.2"/></g><g transform="translate(-14,2) scale(1,1)"><path fill="#ffffff" stroke="none" d="M 152 153 C 152 143.6111584 196.3238048 136 251 136 C 305.6761952 136 350 143.6111584 350 153 C 350 162.3888416 305.6761952 170 251 170 C 196.3238048 170 152 162.3888416 152 153 Z"/></g><g transform="translate(-14,2) scale(1,1)"><path fill="none" stroke="#000000" d="M 152 153 C 152 143.6111584 196.3238048 136 251 136 C 305.6761952 136 350 143.6111584 350 153 C 350 162.3888416 305.6761952 170 251 170 C 196.3238048 170 152 162.3888416 152 153 Z" stroke-miterlimit="10"/></g><g transform="translate(-14,2) scale(1,1)"><g><path fill="none" stroke="none"/><text fill="#000000" stroke="none" font-family="Arial" font-size="13px" font-style="normal" font-weight="bold" text-decoration="none" x="185.61279296875" y="158.5">Execute transactions</text></g></g><g transform="translate(-14,2) scale(1,1)"><path fill="#C0C0C0" stroke="none" d="M 671 200 C 671 190.6111584 708.3842192 183 754.5 183 C 800.6157808 183 838 190.6111584 838 200 C 838 209.3888416 800.6157808 217 754.5 217 C 708.3842192 217 671 209.3888416 671 200 Z" opacity="0.2"/></g><g transform="translate(-14,2) scale(1,1)"><path fill="#ffffff" stroke="none" d="M 664 193 C 664 183.6111584 701.3842192 176 747.5 176 C 793.6157808 176 831 183.6111584 831 193 C 831 202.3888416 793.6157808 210 747.5 210 C 701.3842192 210 664 202.3888416 664 193 Z"/></g><g transform="translate(-14,2) scale(1,1)"><path fill="none" stroke="#000000" d="M 664 193 C 664 183.6111584 701.3842192 176 747.5 176 C 793.6157808 176 831 183.6111584 831 193 C 831 202.3888416 793.6157808 210 747.5 210 C 701.3842192 210 664 202.3888416 664 193 Z" stroke-miterlimit="10"/></g><g transform="translate(-14,2) scale(1,1)"><g><path fill="none" stroke="none"/><text fill="#000000" stroke="none" font-family="Arial" font-size="13px" font-style="normal" font-weight="bold" text-decoration="none" x="692.945068359375" y="198.5">Create categories</text></g></g><g transform="translate(-14,2) scale(1,1)"><path fill="#C0C0C0" stroke="none" d="M 535 304 C 535 294.6111584 571.0410736 287 615.5 287 C 659.9589264 287 696 294.6111584 696 304 C 696 313.3888416 659.9589264 321 615.5 321 C 571.0410736 321 535 313.3888416 535 304 Z" opacity="0.2"/></g><g transform="translate(-14,2) scale(1,1)"><path fill="#ffffff" stroke="none" d="M 528 297 C 528 287.6111584 564.0410736 280 608.5 280 C 652.9589264 280 689 287.6111584 689 297 C 689 306.3888416 652.9589264 314 608.5 314 C 564.0410736 314 528 306.3888416 528 297 Z"/></g><g transform="translate(-14,2) scale(1,1)"><path fill="none" stroke="#000000" d="M 528 297 C 528 287.6111584 564.0410736 280 608.5 280 C 652.9589264 280 689 287.6111584 689 297 C 689 306.3888416 652.9589264 314 608.5 314 C 564.0410736 314 528 306.3888416 528 297 Z" stroke-miterlimit="10"/></g><g transform="translate(-14,2) scale(1,1)"><g><path fill="none" stroke="none"/><text fill="#000000" stroke="none" font-family="Arial" font-size="13px" font-style="normal" font-weight="bold" text-decoration="none" x="556.119140625" y="302.5">Create milestone</text></g></g><g transform="translate(-14,2) scale(1,1)"><path fill="#C0C0C0" stroke="none" d="M 583 256 C 583 246.6111584 613.4446336 239 651 239 C 688.5553664 239 719 246.6111584 719 256 C 719 265.3888416 688.5553664 273 651 273 C 613.4446336 273 583 265.3888416 583 256 Z" opacity="0.2"/></g><g transform="translate(-14,2) scale(1,1)"><path fill="#ffffff" stroke="none" d="M 576 249 C 576 239.6111584 606.4446336 232 644 232 C 681.5553664 232 712 239.6111584 712 249 C 712 258.3888416 681.5553664 266 644 266 C 606.4446336 266 576 258.3888416 576 249 Z"/></g><g transform="translate(-14,2) scale(1,1)"><path fill="none" stroke="#000000" d="M 576 249 C 576 239.6111584 606.4446336 232 644 232 C 681.5553664 232 712 239.6111584 712 249 C 712 258.3888416 681.5553664 266 644 266 C 606.4446336 266 576 258.3888416 576 249 Z" stroke-miterlimit="10"/></g><g transform="translate(-14,2) scale(1,1)"><g><path fill="none" stroke="none"/><text fill="#000000" stroke="none" font-family="Arial" font-size="13px" font-style="normal" font-weight="bold" text-decoration="none" x="600.299560546875" y="254.5">Create budget</text></g></g><g transform="translate(-14,2) scale(1,1)"><path fill="#C0C0C0" stroke="none" d="M 671 504 C 671 494.6111584 715.9953776 487 771.5 487 C 827.0046224 487 872 494.6111584 872 504 C 872 513.3888416 827.0046224 521 771.5 521 C 715.9953776 521 671 513.3888416 671 504 Z" opacity="0.2"/></g><g transform="translate(-14,2) scale(1,1)"><path fill="#ffffff" stroke="none" d="M 664 497 C 664 487.6111584 708.9953776 480 764.5 480 C 820.0046224 480 865 487.6111584 865 497 C 865 506.3888416 820.0046224 514 764.5 514 C 708.9953776 514 664 506.3888416 664 497 Z"/></g><g transform="translate(-14,2) scale(1,1)"><path fill="none" stroke="#000000" d="M 664 497 C 664 487.6111584 708.9953776 480 764.5 480 C 820.0046224 480 865 487.6111584 865 497 C 865 506.3888416 820.0046224 514 764.5 514 C 708.9953776 514 664 506.3888416 664 497 Z" stroke-miterlimit="10"/></g><g transform="translate(-14,2) scale(1,1)"><g><path fill="none" stroke="none"/><text fill="#000000" stroke="none" font-family="Arial" font-size="13px" font-style="normal" font-weight="bold" text-decoration="none" x="698.036865234375" y="502.5">Buy premium version</text></g></g><g transform="translate(-14,2) scale(1,1)"><path fill="#ffffff" stroke="none" d="M 757.5697507102273 537.6800000000001 C 757.5697507102273 532.8861679360001 761.4555930351727 529 766.2490234375 529 C 771.0424538398273 529 774.9282961647727 532.8861679360001 774.9282961647727 537.6800000000001 C 774.9282961647727 542.473832064 771.0424538398273 546.36 766.2490234375 546.36 C 761.4555930351727 546.36 757.5697507102273 542.473832064 757.5697507102273 537.6800000000001 Z"/></g><g transform="translate(-14,2) scale(1,1)"><path fill="none" stroke="#000000" d="M 757.5697507102273 537.6800000000001 C 757.5697507102273 532.8861679360001 761.4555930351727 529 766.2490234375 529 C 771.0424538398273 529 774.9282961647727 532.8861679360001 774.9282961647727 537.6800000000001 C 774.9282961647727 542.473832064 771.0424538398273 546.36 766.2490234375 546.36 C 761.4555930351727 546.36 757.5697507102273 542.473832064 757.5697507102273 537.6800000000001 Z" stroke-miterlimit="10"/></g><g transform="translate(-14,2) scale(1,1)"><path fill="none" stroke="#000000" d="M 766.2490234375 546.36 L 766.2490234375 563.64" stroke-miterlimit="10"/></g><g transform="translate(-14,2) scale(1,1)"><path fill="none" stroke="#000000" d="M 757.0592052556818 552.84 L 775.4388416193182 552.84" stroke-miterlimit="10"/></g><g transform="translate(-14,2) scale(1,1)"><path fill="none" stroke="#000000" d="M 766.2490234375 563.64 L 753.4853870738636 581" stroke-miterlimit="10"/></g><g transform="translate(-14,2) scale(1,1)"><path fill="none" stroke="#000000" d="M 766.2490234375 563.64 L 779.0126598011364 581" stroke-miterlimit="10"/></g><g transform="translate(-14,2) scale(1,1)"><g><path fill="none" stroke="none"/><text fill="#000000" stroke="none" font-family="Arial" font-size="13px" font-style="normal" font-weight="bold" text-decoration="none" x="700.5" y="600">Upgrade plan service</text></g></g><g transform="translate(-14,2) scale(1,1)"><path fill="#C0C0C0" stroke="none" d="M 327 40 C 327 30.6111584 349.6096176 23 377.5 23 C 405.3903824 23 428 30.6111584 428 40 C 428 49.3888416 405.3903824 57 377.5 57 C 349.6096176 57 327 49.3888416 327 40 Z" opacity="0.2"/></g><g transform="translate(-14,2) scale(1,1)"><path fill="#ffffff" stroke="none" d="M 320 33 C 320 23.6111584 342.6096176 16 370.5 16 C 398.3903824 16 421 23.6111584 421 33 C 421 42.3888416 398.3903824 50 370.5 50 C 342.6096176 50 320 42.3888416 320 33 Z"/></g><g transform="translate(-14,2) scale(1,1)"><path fill="none" stroke="#000000" d="M 320 33 C 320 23.6111584 342.6096176 16 370.5 16 C 398.3903824 16 421 23.6111584 421 33 C 421 42.3888416 398.3903824 50 370.5 50 C 342.6096176 50 320 42.3888416 320 33 Z" stroke-miterlimit="10"/></g><g transform="translate(-14,2) scale(1,1)"><g><path fill="none" stroke="none"/><text fill="#000000" stroke="none" font-family="Arial" font-size="13px" font-style="normal" font-weight="bold" text-decoration="none" x="339.437744140625" y="38.5">Filter data</text></g></g><g transform="translate(-14,2) scale(1,1)"><path fill="none" stroke="#000000" d="M 765 527 L 765 515" stroke-miterlimit="10"/></g><g transform="translate(-14,2) scale(1,1)"><path fill="none" stroke="#000000" d="M 49 320 L 48 496 L 663 497" stroke-miterlimit="10"/></g><g transform="translate(-14,2) scale(1,1)"><path fill="none" stroke="#000000" d="M 75 263 L 222 171" stroke-miterlimit="10"/></g><g transform="translate(-14,2) scale(1,1)"><path fill="none" stroke="#000000" d="M 60 239 L 88 136 L 200 99" stroke-miterlimit="10"/></g><g transform="translate(-14,2) scale(1,1)"><path fill="none" stroke="#000000" d="M 49 239 L 48 32 L 319 33" stroke-miterlimit="10"/></g><g transform="translate(-14,2) scale(1,1)"><g><path fill="none" stroke="none"/><text fill="#000000" stroke="none" font-family="Arial" font-size="13px" font-style="normal" font-weight="normal" text-decoration="none" x="77" y="591">Non mettiamo la funzione di Elimina (è sottointeso che se un utente può creare qualcosa allora</text><text fill="#000000" stroke="none" font-family="Arial" font-size="13px" font-style="normal" font-weight="normal" text-decoration="none" x="77" y="604">lo può anche eliminare/modificare). Non abbiamo messo l'attore Database perché non aggiunge</text><text fill="#000000" stroke="none" font-family="Arial" font-size="13px" font-style="normal" font-weight="normal" text-decoration="none" x="77" y="617">casi d'uso e si collega a tutto.</text></g></g><g transform="translate(-14,2) scale(1,1)"><path fill="none" stroke="#000000" d="M 75 276 L 663 203" stroke-miterlimit="10"/></g><g transform="translate(-14,2) scale(1,1)"><path fill="none" stroke="#000000" d="M 75 278 L 575 252" stroke-miterlimit="10"/></g><g transform="translate(-14,2) scale(1,1)"><path fill="none" stroke="#000000" d="M 75 280 L 527 294" stroke-miterlimit="10"/></g><g transform="translate(-14,2) scale(1,1)"><path fill="#C0C0C0" stroke="none" d="M 719 344 C 719 334.6111584 743.624336 327 774 327 C 804.375664 327 829 334.6111584 829 344 C 829 353.3888416 804.375664 361 774 361 C 743.624336 361 719 353.3888416 719 344 Z" opacity="0.2"/></g><g transform="translate(-14,2) scale(1,1)"><path fill="#ffffff" stroke="none" d="M 712 337 C 712 327.6111584 736.624336 320 767 320 C 797.375664 320 822 327.6111584 822 337 C 822 346.3888416 797.375664 354 767 354 C 736.624336 354 712 346.3888416 712 337 Z"/></g><g transform="translate(-14,2) scale(1,1)"><path fill="none" stroke="#000000" d="M 712 337 C 712 327.6111584 736.624336 320 767 320 C 797.375664 320 822 327.6111584 822 337 C 822 346.3888416 797.375664 354 767 354 C 736.624336 354 712 346.3888416 712 337 Z" stroke-miterlimit="10"/></g><g transform="translate(-14,2) scale(1,1)"><g><path fill="none" stroke="none"/><text fill="#000000" stroke="none" font-family="Arial" font-size="13px" font-style="italic" font-weight="bold" text-decoration="none" x="732.687744140625" y="342">Operations</text></g></g><g transform="translate(-14,2) scale(1,1)"><path fill="none" stroke="#000000" d="M 750 211 L 765 319" stroke-miterlimit="10"/></g><g transform="translate(-14,2) scale(1,1)"><path fill="#FFFFFF" stroke="none" d="M 753.8648851218081 300.02609116050496 L 765 319 L 770.5428643663616 297.70970515431696"/></g><g transform="translate(-14,2) scale(1,1)"><path fill="none" stroke="#000000" d="M 753.8648851218081 300.02609116050496 L 765 319 L 770.5428643663616 297.70970515431696 L 753.8648851218081 300.02609116050496" stroke-miterlimit="10"/></g><g transform="translate(-14,2) scale(1,1)"><path fill="none" stroke="#000000" d="M 669 267 L 742 319" stroke-miterlimit="10"/></g><g transform="translate(-14,2) scale(1,1)"><path fill="#FFFFFF" stroke="none" d="M 720.5606985432443 314.0647843971768 L 742 319 L 730.3298489753993 300.35040013665144"/></g><g transform="translate(-14,2) scale(1,1)"><path fill="none" stroke="#000000" d="M 720.5606985432443 314.0647843971768 L 742 319 L 730.3298489753993 300.35040013665144 L 720.5606985432443 314.0647843971768" stroke-miterlimit="10"/></g><g transform="translate(-14,2) scale(1,1)"><path fill="none" stroke="#000000" d="M 680 315 L 711 323" stroke-miterlimit="10"/></g><g transform="translate(-14,2) scale(1,1)"><path fill="#FFFFFF" stroke="none" d="M 689.2156928584421 326.07310305103346 L 711 323 L 693.423156690083 309.7691807034247"/></g><g transform="translate(-14,2) scale(1,1)"><path fill="none" stroke="#000000" d="M 689.2156928584421 326.07310305103346 L 711 323 L 693.423156690083 309.7691807034247 L 689.2156928584421 326.07310305103346" stroke-miterlimit="10"/></g><g transform="translate(-14,2) scale(1,1)"><path fill="#ffffff" stroke="none" d="M 728 368 L 792.51953125 368 L 802.51953125 378 L 802.51953125 391 L 728 391 L 728 368"/></g><g transform="translate(-14,2) scale(1,1)"><path fill="none" stroke="#000000" d="M 728 368 L 792.51953125 368 L 802.51953125 378 L 802.51953125 391 L 728 391 L 728 368 L 728 368" stroke-miterlimit="10"/></g><g transform="translate(-14,2) scale(1,1)"><path fill="none" stroke="#000000" d="M 792.51953125 368 L 792.51953125 378 L 802.51953125 378 L 792.51953125 368" stroke-miterlimit="10"/></g><g transform="translate(-14,2) scale(1,1)"><g><path fill="none" stroke="none"/><text fill="#000000" stroke="none" font-family="Arial" font-size="13px" font-style="normal" font-weight="normal" text-decoration="none" x="733" y="383">{Abstract}</text></g></g><g transform="translate(-14,2) scale(1,1)"><path fill="none" stroke="#000000" d="M 766 367 L 766 355" stroke-miterlimit="10" stroke-dasharray="3"/></g><g transform="translate(-14,2) scale(1,1)"><path fill="#C0C0C0" stroke="none" d="M 423 160 C 423 150.6111584 451.4299152 143 486.5 143 C 521.5700848 143 550 150.6111584 550 160 C 550 169.3888416 521.5700848 177 486.5 177 C 451.4299152 177 423 169.3888416 423 160 Z" opacity="0.2"/></g><g transform="translate(-14,2) scale(1,1)"><path fill="#ffffff" stroke="none" d="M 416 153 C 416 143.6111584 444.4299152 136 479.5 136 C 514.5700848 136 543 143.6111584 543 153 C 543 162.3888416 514.5700848 170 479.5 170 C 444.4299152 170 416 162.3888416 416 153 Z"/></g><g transform="translate(-14,2) scale(1,1)"><path fill="none" stroke="#000000" d="M 416 153 C 416 143.6111584 444.4299152 136 479.5 136 C 514.5700848 136 543 143.6111584 543 153 C 543 162.3888416 514.5700848 170 479.5 170 C 444.4299152 170 416 162.3888416 416 153 Z" stroke-miterlimit="10"/></g><g transform="translate(-14,2) scale(1,1)"><g><path fill="none" stroke="none"/><text fill="#000000" stroke="none" font-family="Arial" font-size="13px" font-style="italic" font-weight="bold" text-decoration="none" x="439.16064453125" y="158">Transactions</text></g></g><g transform="translate(-14,2) scale(1,1)"><path fill="none" stroke="#000000" d="M 386 51 L 463 135" stroke-miterlimit="10"/></g><g transform="translate(-14,2) scale(1,1)"><path fill="#FFFFFF" stroke="none" d="M 443.05953372998727 125.70603395021891 L 463 135 L 455.47178749837013 114.3281346625346"/></g><g transform="translate(-14,2) scale(1,1)"><path fill="none" stroke="#000000" d="M 443.05953372998727 125.70603395021891 L 463 135 L 455.47178749837013 114.3281346625346 L 443.05953372998727 125.70603395021891" stroke-miterlimit="10"/></g><g transform="translate(-14,2) scale(1,1)"><path fill="none" stroke="#000000" d="M 310 99 L 423 135" stroke-miterlimit="10"/></g><g transform="translate(-14,2) scale(1,1)"><path fill="#FFFFFF" stroke="none" d="M 401.0780900463025 136.85198919596732 L 423 135 L 406.18931469602694 120.80842293433236"/></g><g transform="translate(-14,2) scale(1,1)"><path fill="none" stroke="#000000" d="M 401.0780900463025 136.85198919596732 L 423 135 L 406.18931469602694 120.80842293433236 L 401.0780900463025 136.85198919596732" stroke-miterlimit="10"/></g><g transform="translate(-14,2) scale(1,1)"><path fill="none" stroke="#000000" d="M 351 153 L 415 153" stroke-miterlimit="10"/></g><g transform="translate(-14,2) scale(1,1)"><path fill="#FFFFFF" stroke="none" d="M 394.6746502847517 161.41903551203197 L 415 153 L 394.6746502847517 144.58096448796803"/></g><g transform="translate(-14,2) scale(1,1)"><path fill="none" stroke="#000000" d="M 394.6746502847517 161.41903551203197 L 415 153 L 394.6746502847517 144.58096448796803 L 394.6746502847517 161.41903551203197" stroke-miterlimit="10"/></g><g transform="translate(-14,2) scale(1,1)"><path fill="#ffffff" stroke="none" d="M 560 144 L 624.51953125 144 L 634.51953125 154 L 634.51953125 167 L 560 167 L 560 144"/></g><g transform="translate(-14,2) scale(1,1)"><path fill="none" stroke="#000000" d="M 560 144 L 624.51953125 144 L 634.51953125 154 L 634.51953125 167 L 560 167 L 560 144 L 560 144" stroke-miterlimit="10"/></g><g transform="translate(-14,2) scale(1,1)"><path fill="none" stroke="#000000" d="M 624.51953125 144 L 624.51953125 154 L 634.51953125 154 L 624.51953125 144" stroke-miterlimit="10"/></g><g transform="translate(-14,2) scale(1,1)"><g><path fill="none" stroke="none"/><text fill="#000000" stroke="none" font-family="Arial" font-size="13px" font-style="normal" font-weight="normal" text-decoration="none" x="565" y="159">{Abstract}</text></g></g><g transform="translate(-14,2) scale(1,1)"><path fill="none" stroke="#000000" d="M 559 155 L 544 155" stroke-miterlimit="10" stroke-dasharray="3"/></g><g transform="translate(-14,2) scale(1,1)"><g><path fill="none" stroke="none"/><text fill="#000000" stroke="none" font-family="Arial" font-size="13px" font-style="normal" font-weight="normal" text-decoration="none" x="639.5" y="227">«include»</text></g></g><g transform="translate(-14,2) scale(1,1)"><path fill="none" stroke="#000000" d="M 456 171 L 265 319" stroke-miterlimit="10" stroke-dasharray="3"/></g><g transform="translate(-14,2) scale(1,1)"><path fill="none" stroke="#000000" d="M 270.45488106685684 309.44781320605347 L 265 319 L 275.61159945010075 316.1027673357804" stroke-miterlimit="10"/></g><g transform="translate(-14,2) scale(1,1)"><g><path fill="none" stroke="none"/><text fill="#000000" stroke="none" font-family="Arial" font-size="13px" font-style="normal" font-weight="normal" text-decoration="none" x="327.5" y="218">«include»</text></g></g><g transform="translate(-14,2) scale(1,1)"><path fill="none" stroke="#000000" d="M 711 337 L 294 337" stroke-miterlimit="10" stroke-dasharray="3"/></g><g transform="translate(-14,2) scale(1,1)"><path fill="none" stroke="#000000" d="M 304.16267485762415 332.790482243984 L 294 337 L 304.16267485762415 341.209517756016" stroke-miterlimit="10"/></g><g transform="translate(-14,2) scale(1,1)"><g><path fill="none" stroke="none"/><text fill="#000000" stroke="none" font-family="Arial" font-size="13px" font-style="normal" font-weight="normal" text-decoration="none" x="479.5" y="354">«include»</text></g></g><g transform="translate(-14,2) scale(1,1)"><path fill="none" stroke="#000000" d="M 213 447 L 237 355" stroke-miterlimit="10" stroke-dasharray="3"/></g><g transform="translate(-14,2) scale(1,1)"><path fill="none" stroke="#000000" d="M 238.50792042153265 365.8961541840378 L 237 355 L 230.3615162431681 363.7710052679427" stroke-miterlimit="10"/></g><g transform="translate(-14,2) scale(1,1)"><g><path fill="none" stroke="none"/><text fill="#000000" stroke="none" font-family="Arial" font-size="13px" font-style="normal" font-weight="normal" text-decoration="none" x="238.5" y="397">«extend»</text></g></g><g transform="translate(-14,2) scale(1,1)"><path fill="none" stroke="#000000" d="M 219 355 L 193 375" stroke-miterlimit="10" stroke-dasharray="3"/></g><g transform="translate(-14,2) scale(1,1)"><path fill="none" stroke="#000000" d="M 198.4885916117923 365.4671430243099 L 193 375 L 203.6217681594539 372.14027253626995" stroke-miterlimit="10"/></g><g transform="translate(-14,2) scale(1,1)"><g><path fill="none" stroke="none"/><text fill="#000000" stroke="none" font-family="Arial" font-size="13px" font-style="normal" font-weight="normal" text-decoration="none" x="143.5" y="362">«include»</text></g></g><g transform="translate(-14,2) scale(1,1)"><path fill="none" stroke="#000000" d="M 199 447 L 180 411" stroke-miterlimit="10" stroke-dasharray="3"/></g><g transform="translate(-14,2) scale(1,1)"><path fill="none" stroke="#000000" d="M 188.4663494078218 418.0228859954206 L 180 411 L 181.02068276730355 421.9525433890275" stroke-miterlimit="10"/></g><g transform="translate(-14,2) scale(1,1)"><g><path fill="none" stroke="none"/><text fill="#000000" stroke="none" font-family="Arial" font-size="13px" font-style="normal" font-weight="normal" text-decoration="none" x="127.5" y="435">«include»</text></g></g><g transform="translate(-14,2) scale(1,1)"><path fill="none" stroke="#000000" d="M 252 135 L 253 99" stroke-miterlimit="10" stroke-dasharray="3"/></g><g transform="translate(-14,2) scale(1,1)"><path fill="none" stroke="#000000" d="M 256.9257069767938 109.27564230266667 L 253 99 L 248.50991767097926 109.04187037750516" stroke-miterlimit="10"/></g><g transform="translate(-14,2) scale(1,1)"><g><path fill="none" stroke="none"/><text fill="#000000" stroke="none" font-family="Arial" font-size="13px" font-style="normal" font-weight="normal" text-decoration="none" x="183.5" y="123">«include»</text></g></g><g transform="translate(-14,2) scale(1,1)"><path fill="none" stroke="#000000" d="M 298 63 L 327 51" stroke-miterlimit="10" stroke-dasharray="3"/></g><g transform="translate(-14,2) scale(1,1)"><path fill="none" stroke="#000000" d="M 319.21903402965046 58.77538221364469 L 327 51 L 316.00000070859863 50.996051687769494" stroke-miterlimit="10"/></g><g transform="translate(-14,2) scale(1,1)"><g><path fill="none" stroke="none"/><text fill="#000000" stroke="none" font-family="Arial" font-size="13px" font-style="normal" font-weight="normal" text-decoration="none" x="254.5" y="51">«extend»</text></g></g><g transform="translate(-14,2) scale(1,1)"><path fill="none" stroke="#000000" d="M 61 320 L 96 440 L 127 447" stroke-miterlimit="10"/></g></g></svg>