<svg version="1.1" xmlns="http://www.w3.org/2000/svg" xmlns:xlink="http://www.w3.org/1999/xlink" width="868" height="707"><defs/><g><g transform="translate(-14,2) scale(1,1)"><rect fill="#C0C0C0" stroke="none" x="151" y="15" width="728" height="512" opacity="0.2"/></g><g transform="translate(-14,2) scale(1,1)"><rect fill="#ffffff" stroke="none" x="144" y="8" width="728" height="512"/></g><g transform="translate(-14,2) scale(1,1)"><path fill="none" stroke="#000000" d="M 144 8 L 872 8 L 872 520 L 144 520 L 144 8 Z Z" stroke-miterlimit="10"/></g><g transform="translate(-14,2) scale(1,1)"><g><path fill="none" stroke="none"/><text fill="#000000" stroke="none" font-family="Arial" font-size="13px" font-style="normal" font-weight="bold" text-decoration="none" x="441.908203125" y="25.7099609375">Costing management</text></g></g><g transform="translate(-14,2) scale(1,1)"><path fill="#ffffff" stroke="none" d="M 40.40935031960227 249.68 C 40.40935031960227 244.886167936 44.295192644547726 241 49.088623046875 241 C 53.882053449202274 241 57.76789577414773 244.886167936 57.76789577414773 249.68 C 57.76789577414773 254.47383206400002 53.882053449202274 258.36 49.088623046875 258.36 C 44.295192644547726 258.36 40.40935031960227 254.47383206400002 40.40935031960227 249.68 Z"/></g><g transform="translate(-14,2) scale(1,1)"><path fill="none" stroke="#000000" d="M 40.40935031960227 249.68 C 40.40935031960227 244.886167936 44.295192644547726 241 49.088623046875 241 C 53.882053449202274 241 57.76789577414773 244.886167936 57.76789577414773 249.68 C 57.76789577414773 254.47383206400002 53.882053449202274 258.36 49.088623046875 258.36 C 44.295192644547726 258.36 40.40935031960227 254.47383206400002 40.40935031960227 249.68 Z" stroke-miterlimit="10"/></g><g transform="translate(-14,2) scale(1,1)"><path fill="none" stroke="#000000" d="M 49.088623046875 258.36 L 49.088623046875 275.64" stroke-miterlimit="10"/></g><g transform="translate(-14,2) scale(1,1)"><path fill="none" stroke="#000000" d="M 39.89880486505682 264.84 L 58.27844122869318 264.84" stroke-miterlimit="10"/></g><g transform="translate(-14,2) scale(1,1)"><path fill="none" stroke="#000000" d="M 49.088623046875 275.64 L 36.324986683238635 293" stroke-miterlimit="10"/></g><g transform="translate(-14,2) scale(1,1)"><path fill="none" stroke="#000000" d="M 49.088623046875 275.64 L 61.852259410511365 293" stroke-miterlimit="10"/></g><g transform="translate(-14,2) scale(1,1)"><g><path fill="none" stroke="none"/><text fill="#000000" stroke="none" font-family="Arial" font-size="13px" font-style="normal" font-weight="bold" text-decoration="none" x="34.635009765625" y="311.471923828125">User</text></g></g><g transform="translate(-14,2) scale(1,1)"><path fill="#C0C0C0" stroke="none" d="M 279 352 C 279 342.6111584 301.6096176 335 329.5 335 C 357.3903824 335 380 342.6111584 380 352 C 380 361.3888416 357.3903824 369 329.5 369 C 301.6096176 369 279 361.3888416 279 352 Z" opacity="0.2"/></g><g transform="translate(-14,2) scale(1,1)"><path fill="#ffffff" stroke="none" d="M 272 345 C 272 335.6111584 294.6096176 328 322.5 328 C 350.3903824 328 373 335.6111584 373 345 C 373 354.3888416 350.3903824 362 322.5 362 C 294.6096176 362 272 354.3888416 272 345 Z"/></g><g transform="translate(-14,2) scale(1,1)"><path fill="none" stroke="#000000" d="M 272 345 C 272 335.6111584 294.6096176 328 322.5 328 C 350.3903824 328 373 335.6111584 373 345 C 373 354.3888416 350.3903824 362 322.5 362 C 294.6096176 362 272 354.3888416 272 345 Z" stroke-miterlimit="10"/></g><g transform="translate(-14,2) scale(1,1)"><g><path fill="none" stroke="none"/><text fill="#000000" stroke="none" font-family="Arial" font-size="13px" font-style="normal" font-weight="bold" text-decoration="none" x="300.83544921875" y="350.2099609375">Sign in</text></g></g><g transform="translate(-14,2) scale(1,1)"><path fill="#C0C0C0" stroke="none" d="M 151 432 C 151 422.6111584 173.6096176 415 201.5 415 C 229.3903824 415 252 422.6111584 252 432 C 252 441.3888416 229.3903824 449 201.5 449 C 173.6096176 449 151 441.3888416 151 432 Z" opacity="0.2"/></g><g transform="translate(-14,2) scale(1,1)"><path fill="#ffffff" stroke="none" d="M 144 425 C 144 415.6111584 166.6096176 408 194.5 408 C 222.3903824 408 245 415.6111584 245 425 C 245 434.3888416 222.3903824 442 194.5 442 C 166.6096176 442 144 434.3888416 144 425 Z"/></g><g transform="translate(-14,2) scale(1,1)"><path fill="none" stroke="#000000" d="M 144 425 C 144 415.6111584 166.6096176 408 194.5 408 C 222.3903824 408 245 415.6111584 245 425 C 245 434.3888416 222.3903824 442 194.5 442 C 166.6096176 442 144 434.3888416 144 425 Z" stroke-miterlimit="10"/></g><g transform="translate(-14,2) scale(1,1)"><g><path fill="none" stroke="none"/><text fill="#000000" stroke="none" font-family="Arial" font-size="13px" font-style="normal" font-weight="bold" text-decoration="none" x="170.6708984375" y="430.2099609375">Sign up</text></g></g><g transform="translate(-14,2) scale(1,1)"><path fill="#C0C0C0" stroke="none" d="M 247 480 C 247 470.6111584 286.6227952 463 335.5 463 C 384.3772048 463 424 470.6111584 424 480 C 424 489.3888416 384.3772048 497 335.5 497 C 286.6227952 497 247 489.3888416 247 480 Z" opacity="0.2"/></g><g transform="translate(-14,2) scale(1,1)"><path fill="#ffffff" stroke="none" d="M 240 473 C 240 463.6111584 279.6227952 456 328.5 456 C 377.3772048 456 417 463.6111584 417 473 C 417 482.3888416 377.3772048 490 328.5 490 C 279.6227952 490 240 482.3888416 240 473 Z"/></g><g transform="translate(-14,2) scale(1,1)"><path fill="none" stroke="#000000" d="M 240 473 C 240 463.6111584 279.6227952 456 328.5 456 C 377.3772048 456 417 463.6111584 417 473 C 417 482.3888416 377.3772048 490 328.5 490 C 279.6227952 490 240 482.3888416 240 473 Z" stroke-miterlimit="10"/></g><g transform="translate(-14,2) scale(1,1)"><g><path fill="none" stroke="none"/><text fill="#000000" stroke="none" font-family="Arial" font-size="13px" font-style="normal" font-weight="bold" text-decoration="none" x="270.333251953125" y="478.2099609375">Recover Password</text></g></g><g transform="translate(-14,2) scale(1,1)"><path fill="none" stroke="#000000" d="M 293 363 L 223 407" stroke-miterlimit="10" stroke-dasharray="3"/></g><g transform="translate(-14,2) scale(1,1)"><path fill="none" stroke="#000000" d="M 229.36390640336927 398.02778203067066 L 223 407 L 233.84427754105545 405.1556452042623" stroke-miterlimit="10"/></g><g transform="translate(-14,2) scale(1,1)"><g><path fill="none" stroke="none"/><text fill="#000000" stroke="none" font-family="Arial" font-size="13px" font-style="normal" font-weight="normal" text-decoration="none" x="249.5" y="391.7099609375">«include»</text></g></g><g transform="translate(-14,2) scale(1,1)"><path fill="none" stroke="#000000" d="M 278 455 L 244 443" stroke-miterlimit="10" stroke-dasharray="3"/></g><g transform="translate(-14,2) scale(1,1)"><path fill="none" stroke="#000000" d="M 254.98431634925083 442.4128080896498 L 244 443 L 252.18229195892005 450.351877195587" stroke-miterlimit="10"/></g><g transform="translate(-14,2) scale(1,1)"><g><path fill="none" stroke="none"/><text fill="#000000" stroke="none" font-family="Arial" font-size="13px" font-style="normal" font-weight="normal" text-decoration="none" x="194.5" y="460.7099609375">«include»</text></g></g><g transform="translate(-14,2) scale(1,1)"><path fill="none" stroke="#000000" d="M 327 455 L 323 363" stroke-miterlimit="10" stroke-dasharray="3"/></g><g transform="translate(-14,2) scale(1,1)"><path fill="none" stroke="#000000" d="M 327.6469830248906 372.97023313500637 L 323 363 L 319.23589374918504 373.3359326687327" stroke-miterlimit="10"/></g><g transform="translate(-14,2) scale(1,1)"><g><path fill="none" stroke="none"/><text fill="#000000" stroke="none" font-family="Arial" font-size="13px" font-style="normal" font-weight="normal" text-decoration="none" x="323.5" y="416.7099609375">«extend»</text></g></g><g transform="translate(-14,2) scale(1,1)"><path fill="none" stroke="#000000" d="M 75 305 L 176 407" stroke-miterlimit="10"/></g><g transform="translate(-14,2) scale(1,1)"><path fill="none" stroke="#000000" d="M 75 285 L 271 333" stroke-miterlimit="10"/></g><g transform="translate(-14,2) scale(1,1)"><path fill="none" stroke="#000000" d="M 75 297 L 302 455" stroke-miterlimit="10"/></g><g transform="translate(-14,2) scale(1,1)"><path fill="#ffffff" stroke="none" d="M 280.72478000710225 625.6800000000001 C 280.72478000710225 620.8861679360001 284.61062233204774 617 289.404052734375 617 C 294.19748313670226 617 298.08332546164775 620.8861679360001 298.08332546164775 625.6800000000001 C 298.08332546164775 630.473832064 294.19748313670226 634.36 289.404052734375 634.36 C 284.61062233204774 634.36 280.72478000710225 630.473832064 280.72478000710225 625.6800000000001 Z"/></g><g transform="translate(-14,2) scale(1,1)"><path fill="none" stroke="#000000" d="M 280.72478000710225 625.6800000000001 C 280.72478000710225 620.8861679360001 284.61062233204774 617 289.404052734375 617 C 294.19748313670226 617 298.08332546164775 620.8861679360001 298.08332546164775 625.6800000000001 C 298.08332546164775 630.473832064 294.19748313670226 634.36 289.404052734375 634.36 C 284.61062233204774 634.36 280.72478000710225 630.473832064 280.72478000710225 625.6800000000001 Z" stroke-miterlimit="10"/></g><g transform="translate(-14,2) scale(1,1)"><path fill="none" stroke="#000000" d="M 289.404052734375 634.36 L 289.404052734375 651.64" stroke-miterlimit="10"/></g><g transform="translate(-14,2) scale(1,1)"><path fill="none" stroke="#000000" d="M 280.21423455255683 640.84 L 298.59387091619317 640.84" stroke-miterlimit="10"/></g><g transform="translate(-14,2) scale(1,1)"><path fill="none" stroke="#000000" d="M 289.404052734375 651.64 L 276.64041637073865 669" stroke-miterlimit="10"/></g><g transform="translate(-14,2) scale(1,1)"><path fill="none" stroke="#000000" d="M 289.404052734375 651.64 L 302.16768909801135 669" stroke-miterlimit="10"/></g><g transform="translate(-14,2) scale(1,1)"><g><path fill="none" stroke="none"/><text fill="#000000" stroke="none" font-family="Arial" font-size="13px" font-style="normal" font-weight="bold" text-decoration="none" x="260.5" y="687.7099609375">Database</text></g></g><g transform="translate(-14,2) scale(1,1)"><path fill="#C0C0C0" stroke="none" d="M 159 80 C 159 70.6111584 204.6669504 63 261 63 C 317.3330496 63 363 70.6111584 363 80 C 363 89.3888416 317.3330496 97 261 97 C 204.6669504 97 159 89.3888416 159 80 Z" opacity="0.2"/></g><g transform="translate(-14,2) scale(1,1)"><path fill="#ffffff" stroke="none" d="M 152 73 C 152 63.6111584 197.6669504 56 254 56 C 310.3330496 56 356 63.6111584 356 73 C 356 82.3888416 310.3330496 90 254 90 C 197.6669504 90 152 82.3888416 152 73 Z"/></g><g transform="translate(-14,2) scale(1,1)"><path fill="none" stroke="#000000" d="M 152 73 C 152 63.6111584 197.6669504 56 254 56 C 310.3330496 56 356 63.6111584 356 73 C 356 82.3888416 310.3330496 90 254 90 C 197.6669504 90 152 82.3888416 152 73 Z" stroke-miterlimit="10"/></g><g transform="translate(-14,2) scale(1,1)"><g><path fill="none" stroke="none"/><text fill="#000000" stroke="none" font-family="Arial" font-size="13px" font-style="normal" font-weight="bold" text-decoration="none" x="186.4482421875" y="78.2099609375">Create bank accounts</text></g></g><g transform="translate(-14,2) scale(1,1)"><path fill="#C0C0C0" stroke="none" d="M 159 152 C 159 142.6111584 203.3238048 135 258 135 C 312.6761952 135 357 142.6111584 357 152 C 357 161.3888416 312.6761952 169 258 169 C 203.3238048 169 159 161.3888416 159 152 Z" opacity="0.2"/></g><g transform="translate(-14,2) scale(1,1)"><path fill="#ffffff" stroke="none" d="M 152 145 C 152 135.6111584 196.3238048 128 251 128 C 305.6761952 128 350 135.6111584 350 145 C 350 154.3888416 305.6761952 162 251 162 C 196.3238048 162 152 154.3888416 152 145 Z"/></g><g transform="translate(-14,2) scale(1,1)"><path fill="none" stroke="#000000" d="M 152 145 C 152 135.6111584 196.3238048 128 251 128 C 305.6761952 128 350 135.6111584 350 145 C 350 154.3888416 305.6761952 162 251 162 C 196.3238048 162 152 154.3888416 152 145 Z" stroke-miterlimit="10"/></g><g transform="translate(-14,2) scale(1,1)"><g><path fill="none" stroke="none"/><text fill="#000000" stroke="none" font-family="Arial" font-size="13px" font-style="normal" font-weight="bold" text-decoration="none" x="185.61279296875" y="150.2099609375">Execute transactions</text></g></g><g transform="translate(-14,2) scale(1,1)"><path fill="none" stroke="#000000" d="M 252 127 L 253 91" stroke-miterlimit="10" stroke-dasharray="3"/></g><g transform="translate(-14,2) scale(1,1)"><path fill="none" stroke="#000000" d="M 256.9257069767938 101.27564230266667 L 253 91 L 248.50991767097926 101.04187037750516" stroke-miterlimit="10"/></g><g transform="translate(-14,2) scale(1,1)"><g><path fill="none" stroke="none"/><text fill="#000000" stroke="none" font-family="Arial" font-size="13px" font-style="normal" font-weight="normal" text-decoration="none" x="185.5" y="109.7099609375">«include»</text></g></g><g transform="translate(-14,2) scale(1,1)"><path fill="#C0C0C0" stroke="none" d="M 535 88 C 535 78.6111584 572.3842192 71 618.5 71 C 664.6157808 71 702 78.6111584 702 88 C 702 97.3888416 664.6157808 105 618.5 105 C 572.3842192 105 535 97.3888416 535 88 Z" opacity="0.2"/></g><g transform="translate(-14,2) scale(1,1)"><path fill="#ffffff" stroke="none" d="M 528 81 C 528 71.6111584 565.3842192 64 611.5 64 C 657.6157808 64 695 71.6111584 695 81 C 695 90.3888416 657.6157808 98 611.5 98 C 565.3842192 98 528 90.3888416 528 81 Z"/></g><g transform="translate(-14,2) scale(1,1)"><path fill="none" stroke="#000000" d="M 528 81 C 528 71.6111584 565.3842192 64 611.5 64 C 657.6157808 64 695 71.6111584 695 81 C 695 90.3888416 657.6157808 98 611.5 98 C 565.3842192 98 528 90.3888416 528 81 Z" stroke-miterlimit="10"/></g><g transform="translate(-14,2) scale(1,1)"><g><path fill="none" stroke="none"/><text fill="#000000" stroke="none" font-family="Arial" font-size="13px" font-style="normal" font-weight="bold" text-decoration="none" x="556.945068359375" y="86.2099609375">Create categories</text></g></g><g transform="translate(-14,2) scale(1,1)"><path fill="#C0C0C0" stroke="none" d="M 407 208 C 407 198.6111584 443.0410736 191 487.5 191 C 531.9589264 191 568 198.6111584 568 208 C 568 217.3888416 531.9589264 225 487.5 225 C 443.0410736 225 407 217.3888416 407 208 Z" opacity="0.2"/></g><g transform="translate(-14,2) scale(1,1)"><path fill="#ffffff" stroke="none" d="M 400 201 C 400 191.6111584 436.0410736 184 480.5 184 C 524.9589264 184 561 191.6111584 561 201 C 561 210.3888416 524.9589264 218 480.5 218 C 436.0410736 218 400 210.3888416 400 201 Z"/></g><g transform="translate(-14,2) scale(1,1)"><path fill="none" stroke="#000000" d="M 400 201 C 400 191.6111584 436.0410736 184 480.5 184 C 524.9589264 184 561 191.6111584 561 201 C 561 210.3888416 524.9589264 218 480.5 218 C 436.0410736 218 400 210.3888416 400 201 Z" stroke-miterlimit="10"/></g><g transform="translate(-14,2) scale(1,1)"><g><path fill="none" stroke="none"/><text fill="#000000" stroke="none" font-family="Arial" font-size="13px" font-style="normal" font-weight="bold" text-decoration="none" x="428.119140625" y="206.2099609375">Create milestone</text></g></g><g transform="translate(-14,2) scale(1,1)"><path fill="#C0C0C0" stroke="none" d="M 479 152 C 479 142.6111584 509.4446336 135 547 135 C 584.5553664 135 615 142.6111584 615 152 C 615 161.3888416 584.5553664 169 547 169 C 509.4446336 169 479 161.3888416 479 152 Z" opacity="0.2"/></g><g transform="translate(-14,2) scale(1,1)"><path fill="#ffffff" stroke="none" d="M 472 145 C 472 135.6111584 502.4446336 128 540 128 C 577.5553664 128 608 135.6111584 608 145 C 608 154.3888416 577.5553664 162 540 162 C 502.4446336 162 472 154.3888416 472 145 Z"/></g><g transform="translate(-14,2) scale(1,1)"><path fill="none" stroke="#000000" d="M 472 145 C 472 135.6111584 502.4446336 128 540 128 C 577.5553664 128 608 135.6111584 608 145 C 608 154.3888416 577.5553664 162 540 162 C 502.4446336 162 472 154.3888416 472 145 Z" stroke-miterlimit="10"/></g><g transform="translate(-14,2) scale(1,1)"><g><path fill="none" stroke="none"/><text fill="#000000" stroke="none" font-family="Arial" font-size="13px" font-style="normal" font-weight="bold" text-decoration="none" x="496.299560546875" y="150.2099609375">Create budget</text></g></g><g transform="translate(-14,2) scale(1,1)"><path fill="#C0C0C0" stroke="none" d="M 671 504 C 671 494.6111584 715.9953776 487 771.5 487 C 827.0046224 487 872 494.6111584 872 504 C 872 513.3888416 827.0046224 521 771.5 521 C 715.9953776 521 671 513.3888416 671 504 Z" opacity="0.2"/></g><g transform="translate(-14,2) scale(1,1)"><path fill="#ffffff" stroke="none" d="M 664 497 C 664 487.6111584 708.9953776 480 764.5 480 C 820.0046224 480 865 487.6111584 865 497 C 865 506.3888416 820.0046224 514 764.5 514 C 708.9953776 514 664 506.3888416 664 497 Z"/></g><g transform="translate(-14,2) scale(1,1)"><path fill="none" stroke="#000000" d="M 664 497 C 664 487.6111584 708.9953776 480 764.5 480 C 820.0046224 480 865 487.6111584 865 497 C 865 506.3888416 820.0046224 514 764.5 514 C 708.9953776 514 664 506.3888416 664 497 Z" stroke-miterlimit="10"/></g><g transform="translate(-14,2) scale(1,1)"><g><path fill="none" stroke="none"/><text fill="#000000" stroke="none" font-family="Arial" font-size="13px" font-style="normal" font-weight="bold" text-decoration="none" x="698.036865234375" y="502.2099609375">Buy premium version</text></g></g><g transform="translate(-14,2) scale(1,1)"><path fill="#ffffff" stroke="none" d="M 757.5697507102273 537.6800000000001 C 757.5697507102273 532.8861679360001 761.4555930351727 529 766.2490234375 529 C 771.0424538398273 529 774.9282961647727 532.8861679360001 774.9282961647727 537.6800000000001 C 774.9282961647727 542.473832064 771.0424538398273 546.36 766.2490234375 546.36 C 761.4555930351727 546.36 757.5697507102273 542.473832064 757.5697507102273 537.6800000000001 Z"/></g><g transform="translate(-14,2) scale(1,1)"><path fill="none" stroke="#000000" d="M 757.5697507102273 537.6800000000001 C 757.5697507102273 532.8861679360001 761.4555930351727 529 766.2490234375 529 C 771.0424538398273 529 774.9282961647727 532.8861679360001 774.9282961647727 537.6800000000001 C 774.9282961647727 542.473832064 771.0424538398273 546.36 766.2490234375 546.36 C 761.4555930351727 546.36 757.5697507102273 542.473832064 757.5697507102273 537.6800000000001 Z" stroke-miterlimit="10"/></g><g transform="translate(-14,2) scale(1,1)"><path fill="none" stroke="#000000" d="M 766.2490234375 546.36 L 766.2490234375 563.64" stroke-miterlimit="10"/></g><g transform="translate(-14,2) scale(1,1)"><path fill="none" stroke="#000000" d="M 757.0592052556818 552.84 L 775.4388416193182 552.84" stroke-miterlimit="10"/></g><g transform="translate(-14,2) scale(1,1)"><path fill="none" stroke="#000000" d="M 766.2490234375 563.64 L 753.4853870738636 581" stroke-miterlimit="10"/></g><g transform="translate(-14,2) scale(1,1)"><path fill="none" stroke="#000000" d="M 766.2490234375 563.64 L 779.0126598011364 581" stroke-miterlimit="10"/></g><g transform="translate(-14,2) scale(1,1)"><g><path fill="none" stroke="none"/><text fill="#000000" stroke="none" font-family="Arial" font-size="13px" font-style="normal" font-weight="bold" text-decoration="none" x="700.5" y="599.7099609375">Upgrade plan service</text></g></g><g transform="translate(-14,2) scale(1,1)"><path fill="#C0C0C0" stroke="none" d="M 327 32 C 327 22.6111584 349.6096176 15 377.5 15 C 405.3903824 15 428 22.6111584 428 32 C 428 41.3888416 405.3903824 49 377.5 49 C 349.6096176 49 327 41.3888416 327 32 Z" opacity="0.2"/></g><g transform="translate(-14,2) scale(1,1)"><path fill="#ffffff" stroke="none" d="M 320 25 C 320 15.611158399999999 342.6096176 8 370.5 8 C 398.3903824 8 421 15.611158399999999 421 25 C 421 34.3888416 398.3903824 42 370.5 42 C 342.6096176 42 320 34.3888416 320 25 Z"/></g><g transform="translate(-14,2) scale(1,1)"><path fill="none" stroke="#000000" d="M 320 25 C 320 15.611158399999999 342.6096176 8 370.5 8 C 398.3903824 8 421 15.611158399999999 421 25 C 421 34.3888416 398.3903824 42 370.5 42 C 342.6096176 42 320 34.3888416 320 25 Z" stroke-miterlimit="10"/></g><g transform="translate(-14,2) scale(1,1)"><g><path fill="none" stroke="none"/><text fill="#000000" stroke="none" font-family="Arial" font-size="13px" font-style="normal" font-weight="bold" text-decoration="none" x="339.437744140625" y="30.2099609375">Filter data</text></g></g><g transform="translate(-14,2) scale(1,1)"><path fill="none" stroke="#000000" d="M 298 55 L 327 43" stroke-miterlimit="10" stroke-dasharray="3"/></g><g transform="translate(-14,2) scale(1,1)"><path fill="none" stroke="#000000" d="M 319.21903402965046 50.77538221364469 L 327 43 L 316.00000070859863 42.996051687769494" stroke-miterlimit="10"/></g><g transform="translate(-14,2) scale(1,1)"><g><path fill="none" stroke="none"/><text fill="#000000" stroke="none" font-family="Arial" font-size="13px" font-style="normal" font-weight="normal" text-decoration="none" x="250.5" y="51.7099609375">«extend»</text></g></g><g transform="translate(-14,2) scale(1,1)"><path fill="none" stroke="#000000" d="M 765 527 L 765 515" stroke-miterlimit="10"/></g><g transform="translate(-14,2) scale(1,1)"><path fill="none" stroke="#000000" d="M 49 320 L 48 496 L 663 497" stroke-miterlimit="10"/></g><g transform="translate(-14,2) scale(1,1)"><path fill="none" stroke="#000000" d="M 75 262 L 224 163" stroke-miterlimit="10"/></g><g transform="translate(-14,2) scale(1,1)"><path fill="none" stroke="#000000" d="M 49 239 L 48 72 L 151 73" stroke-miterlimit="10"/></g><g transform="translate(-14,2) scale(1,1)"><path fill="none" stroke="#000000" d="M 49 239 L 48 24 L 319 25" stroke-miterlimit="10"/></g><g transform="translate(-14,2) scale(1,1)"><g><path fill="none" stroke="none"/><text fill="#000000" stroke="none" font-family="Arial" font-size="13px" font-style="normal" font-weight="normal" text-decoration="none" x="77" y="590.572265625">Non mettiamo la funzione di Elimina (è sottointeso che se un utente può creare qualcosa allora</text><text fill="#000000" stroke="none" font-family="Arial" font-size="13px" font-style="normal" font-weight="normal" text-decoration="none" x="77" y="603.572265625">lo può anche eliminare/modificare). Non abbiamo messo l'attore Database perché non aggiunge</text><text fill="#000000" stroke="none" font-family="Arial" font-size="13px" font-style="normal" font-weight="normal" text-decoration="none" x="77" y="616.419921875">casi d'uso e si collega a tutto.</text></g></g><g transform="translate(-14,2) scale(1,1)"><path fill="none" stroke="#000000" d="M 75 270 L 560 99" stroke-miterlimit="10"/></g><g transform="translate(-14,2) scale(1,1)"><path fill="none" stroke="#000000" d="M 75 272 L 474 163" stroke-miterlimit="10"/></g><g transform="translate(-14,2) scale(1,1)"><path fill="none" stroke="#000000" d="M 75 274 L 399 216" stroke-miterlimit="10"/></g><g transform="translate(-14,2) scale(1,1)"><path fill="#C0C0C0" stroke="none" d="M 583 312 C 583 302.6111584 607.624336 295 638 295 C 668.375664 295 693 302.6111584 693 312 C 693 321.3888416 668.375664 329 638 329 C 607.624336 329 583 321.3888416 583 312 Z" opacity="0.2"/></g><g transform="translate(-14,2) scale(1,1)"><path fill="#ffffff" stroke="none" d="M 576 305 C 576 295.6111584 600.624336 288 631 288 C 661.375664 288 686 295.6111584 686 305 C 686 314.3888416 661.375664 322 631 322 C 600.624336 322 576 314.3888416 576 305 Z"/></g><g transform="translate(-14,2) scale(1,1)"><path fill="none" stroke="#000000" d="M 576 305 C 576 295.6111584 600.624336 288 631 288 C 661.375664 288 686 295.6111584 686 305 C 686 314.3888416 661.375664 322 631 322 C 600.624336 322 576 314.3888416 576 305 Z" stroke-miterlimit="10"/></g><g transform="translate(-14,2) scale(1,1)"><g><path fill="none" stroke="none"/><text fill="#000000" stroke="none" font-family="Arial" font-size="13px" font-style="italic" font-weight="bold" text-decoration="none" x="596.687744140625" y="309.82275390625">Operations</text></g></g><g transform="translate(-14,2) scale(1,1)"><path fill="none" stroke="#000000" d="M 652 99 L 680 111 L 636 287" stroke-miterlimit="10"/></g><g transform="translate(-14,2) scale(1,1)"><path fill="#FFFFFF" stroke="none" d="M 632.7619572368147 265.239598370807 L 636 287 L 649.0972855577248 269.32343045103454"/></g><g transform="translate(-14,2) scale(1,1)"><path fill="none" stroke="#000000" d="M 632.7619572368147 265.239598370807 L 636 287 L 649.0972855577248 269.32343045103454 L 632.7619572368147 265.239598370807" stroke-miterlimit="10"/></g><g transform="translate(-14,2) scale(1,1)"><path fill="none" stroke="#000000" d="M 550 163 L 621 287" stroke-miterlimit="10"/></g><g transform="translate(-14,2) scale(1,1)"><path fill="#FFFFFF" stroke="none" d="M 603.5943462832747 273.5447698387041 L 621 287 L 618.2066287153968 265.1780597364406"/></g><g transform="translate(-14,2) scale(1,1)"><path fill="none" stroke="#000000" d="M 603.5943462832747 273.5447698387041 L 621 287 L 618.2066287153968 265.1780597364406 L 603.5943462832747 273.5447698387041" stroke-miterlimit="10"/></g><g transform="translate(-14,2) scale(1,1)"><path fill="none" stroke="#000000" d="M 506 219 L 605 287" stroke-miterlimit="10"/></g><g transform="translate(-14,2) scale(1,1)"><path fill="#FFFFFF" stroke="none" d="M 583.4794726070825 282.43196970996377 L 605 287 L 593.0127743405073 268.55260395100703"/></g><g transform="translate(-14,2) scale(1,1)"><path fill="none" stroke="#000000" d="M 583.4794726070825 282.43196970996377 L 605 287 L 593.0127743405073 268.55260395100703 L 583.4794726070825 282.43196970996377" stroke-miterlimit="10"/></g><g transform="translate(-14,2) scale(1,1)"><path fill="#ffffff" stroke="none" d="M 688 296 L 752.51953125 296 L 762.51953125 306 L 762.51953125 319 L 688 319 L 688 296"/></g><g transform="translate(-14,2) scale(1,1)"><path fill="none" stroke="#000000" d="M 688 296 L 752.51953125 296 L 762.51953125 306 L 762.51953125 319 L 688 319 L 688 296 L 688 296" stroke-miterlimit="10"/></g><g transform="translate(-14,2) scale(1,1)"><path fill="none" stroke="#000000" d="M 752.51953125 296 L 752.51953125 306 L 762.51953125 306 L 752.51953125 296" stroke-miterlimit="10"/></g><g transform="translate(-14,2) scale(1,1)"><g><path fill="none" stroke="none"/><text fill="#000000" stroke="none" font-family="Arial" font-size="13px" font-style="normal" font-weight="normal" text-decoration="none" x="693" y="310.419921875">{Abstract}</text></g></g><g transform="translate(-14,2) scale(1,1)"><path fill="none" stroke="#000000" d="M 687 307 L 687 307" stroke-miterlimit="10" stroke-dasharray="3"/></g><g transform="translate(-14,2) scale(1,1)"><path fill="none" stroke="#000000" d="M 575 312 L 374 338" stroke-miterlimit="10" stroke-dasharray="3"/></g><g transform="translate(-14,2) scale(1,1)"><path fill="none" stroke="#000000" d="M 383.5386892655451 332.5215506668971 L 374 338 L 384.6187205371222 340.8710231894743" stroke-miterlimit="10"/></g><g transform="translate(-14,2) scale(1,1)"><g><path fill="none" stroke="none"/><text fill="#000000" stroke="none" font-family="Arial" font-size="13px" font-style="normal" font-weight="normal" text-decoration="none" x="449.5" y="345.7099609375">«include»</text></g></g><g transform="translate(-14,2) scale(1,1)"><path fill="none" stroke="#000000" d="M 560 127 L 591 99" stroke-miterlimit="10" stroke-dasharray="3"/></g><g transform="translate(-14,2) scale(1,1)"><path fill="none" stroke="#000000" d="M 586.2798340352696 108.93579555271751 L 591 99 L 580.6366702262035 102.68800704982289" stroke-miterlimit="10"/></g><g transform="translate(-14,2) scale(1,1)"><g><path fill="none" stroke="none"/><text fill="#000000" stroke="none" font-family="Arial" font-size="13px" font-style="normal" font-weight="normal" text-decoration="none" x="575.5" y="121.7099609375">«include»</text></g></g></g></svg>